<svg xmlns="http://www.w3.org/2000/svg" xmlns:xlink="http://www.w3.org/1999/xlink" version="1.1" x="0px" y="0px" viewBox="0 0 500 625" enable-background="new 0 0 500 500" xml:space="preserve"><g><g><g><path d="M439.6,404.1c-29.5,0-59,0-88.5,0c-46.6,0-93.2,0-139.9,0c-10.8,0-21.5,0-32.3,0c3.3,3.3,6.7,6.7,10,10     c0-28.9,0-57.8,0-86.6c0-46,0-91.9,0-137.9c0-10.5,0-20.9,0-31.4c-3.3,3.3-6.7,6.7-10,10c29.5,0,59,0,88.5,0     c46.6,0,93.2,0,139.9,0c10.8,0,21.5,0,32.3,0c-3.3-3.3-6.7-6.7-10-10c0,28.9,0,57.8,0,86.6c0,46,0,91.9,0,137.9     c0,10.5,0,20.9,0,31.4c0,12.9,20,12.9,20,0c0-28.9,0-57.8,0-86.6c0-46,0-91.9,0-137.9c0-10.5,0-20.9,0-31.4c0-5.4-4.6-10-10-10     c-29.5,0-59,0-88.5,0c-46.6,0-93.2,0-139.9,0c-10.8,0-21.5,0-32.3,0c-5.4,0-10,4.6-10,10c0,28.9,0,57.8,0,86.6     c0,46,0,91.9,0,137.9c0,10.5,0,20.9,0,31.4c0,5.4,4.6,10,10,10c29.5,0,59,0,88.5,0c46.6,0,93.2,0,139.9,0c10.8,0,21.5,0,32.3,0     C452.5,424.1,452.5,404.1,439.6,404.1z"/></g></g><g><g><path d="M179,331.8c-34.7,0-69.3,0-104,0c-4.9,0-9.7,0-14.6,0c3.3,3.3,6.7,6.7,10,10c0-28.9,0-57.8,0-86.6c0-46,0-91.9,0-137.9     c0-10.5,0-20.9,0-31.4c-3.3,3.3-6.7,6.7-10,10c29.5,0,59,0,88.5,0c46.6,0,93.2,0,139.9,0c10.8,0,21.5,0,32.3,0     c-3.3-3.3-6.7-6.7-10-10c0,24.1,0,48.2,0,72.3c0,12.9,20,12.9,20,0c0-24.1,0-48.2,0-72.3c0-5.4-4.6-10-10-10c-29.5,0-59,0-88.5,0     c-46.6,0-93.2,0-139.9,0c-10.8,0-21.5,0-32.3,0c-5.4,0-10,4.6-10,10c0,28.9,0,57.8,0,86.6c0,46,0,91.9,0,137.9     c0,10.5,0,20.9,0,31.4c0,5.4,4.6,10,10,10c34.7,0,69.3,0,104,0c4.9,0,9.7,0,14.6,0C191.8,351.8,191.9,331.8,179,331.8L179,331.8z     "/></g></g></g><text x="0" y="515" fill="#000000" font-size="5px" font-weight="bold" font-family="'Helvetica Neue', Helvetica, Arial-Unicode, Arial, Sans-serif">Created by Neha Tyagi</text><text x="0" y="520" fill="#000000" font-size="5px" font-weight="bold" font-family="'Helvetica Neue', Helvetica, Arial-Unicode, Arial, Sans-serif">from the Noun Project</text></svg>